<?xml version="1.0" encoding="utf-8"?>
<!-- Generator: Adobe Illustrator 28.1.0, SVG Export Plug-In . SVG Version: 6.00 Build 0)  -->
<svg version="1.1" id="Layer_1" xmlns="http://www.w3.org/2000/svg" xmlns:xlink="http://www.w3.org/1999/xlink" x="0px" y="0px"
	 viewBox="0 0 1024 1024" style="enable-background:new 0 0 1024 1024;" xml:space="preserve">
<style type="text/css">
	.st0{fill:#36B4E1;}
	.st1{fill:#006DA6;}
	.st2{fill:#DDECF5;}
	.st3{fill:#2D2B30;}
	.st4{fill:#B7090B;}
</style>
<g id="Layer_2_00000094613930481652730620000013589237034262286491_">
</g>
<g>
	<path class="st0" d="M870.9,264.4c-41.6-59.2-167.3-124.8-354.5-51.2c-196.1,76.8-268.9,287.3-268.9,287.3s-55.2,22.4-92,66.4
		c-52,63.2-42.4,100-36.8,112c7.2,16,24.8,8,40,3.2c11.2-4,32.8-12,68,0.8s47.2,68.8,79.2,115.2c32,46.4,112,151.3,244.9,186.5
		s241.7-21.6,253.7-20.8s35.2,16.8,75.2,36s129.7,16.8,134.5,0.8c4.8-16-34.4-23.2-44-28.8c-9.6-5.6-23.2-32-42.4-54.4
		c-19.2-22.4-64.8-34.4-64.8-34.4s12-32.8,14.4-52c2.4-19.2-12.8-60-11.2-72.8c0.8-13.6,25.6-40.8,12.8-54.4
		c-13.6-13.6-68,29.6-91.2,76c-20,38.4-2.4,82.4-19.2,103.2c-16.8,20.8-74.4,15.2-101.6,3.2c-27.2-12-48.8-29.6-48.8-29.6l-71.2-76
		L574,603.8l177.7-74.4c0,0,72-15.2,104.8-20c28-4,109.6-16,136.1-34.4c26.4-18.4,32-66.4,4.8-89.6c-23.2-20-58.4-15.2-92-36
		C883.7,338.1,895,298.9,870.9,264.4z"/>
	<path class="st1" d="M596.4,611c0,0,49.6,66.4,56.8,89.6c8,26.4,1.6,51.2,11.2,59.2c5.6,4.8,28-12,44-36
		c12.8-20,19.2-49.6,17.6-77.6c-3.2-42.4-29.6-84.8-29.6-84.8l-88.8,12.8L596.4,611z"/>
	<path class="st2" d="M656.5,597.4c-39.2,32-72.8,76-79.2,140.9c-5.6,56,84.8,142.5,88.8,148.9c5.6,8.8-91.2-21.6-128.9-64.8
		c-62.4-70.4-90.4-156.1-6.4-239.3c84-83.2,232.9-56,232.9-56C762.9,526.9,694.9,564.6,656.5,597.4z"/>
	<path class="st3" d="M686.1,315.7c17.6-4,36,13.6,36.8,33.6c1.6,20-15.2,39.2-32.8,40.8c-18.4,1.6-33.6-12-35.2-32
		C653.3,338.1,659.7,321.3,686.1,315.7z"/>
	<g>
		<path class="st1" d="M1005.4,436.5c-17.6,15.2-38.4,20.8-51.2,23.2c-28.8,5.6-77.6,0.8-107.2-2.4c-29.6-3.2-90.4-8-96-12
			c-5.6-4.8-9.6-20.8-6.4-26.4c3.2-5.6,22.4-1.6,41.6,0.8c19.2,2.4,52,9.6,72.8,12c25.6,2.4,80.8,8.8,116-2.4
			c13.6-4.8,35.2-21.6,35.2-21.6C1013.4,410.9,1015.8,426.9,1005.4,436.5z"/>
		<path class="st1" d="M491.6,432.5c-25.6,0-82.4-2.4-148.9,45.6c-76,55.2-106.4,134.5-102.4,150.5c3.2,11.2,68.8-0.8,89.6-2.4
			c20.8-1.6,109.6-10.4,144.9-36.8C510,563,504.4,559,497.2,551c-7.2-8-32.8,17.6-50.4,25.6c-21.6,9.6-59.2,17.6-84.8,19.2
			c-25.6,1.6-80,13.6-83.2,8.8c-3.2-4,8-24,12.8-32c4.8-8,25.6-47.2,71.2-76s109.6-35.2,125.6-37.6c12.8-1.6,34.4-4.8,33.6-15.2
			C521.2,433.3,498,432.5,491.6,432.5z"/>
	</g>
</g>
<circle class="st4" cx="186.2" cy="187" r="177.5"/>
</svg>
